{
    "asset" : {
        "generator" : "Khronos glTF Blender I/O v3.2.40",
        "version" : "2.0"
    },
    "scene" : 0,
    "scenes" : [
        {
            "name" : "Scene",
            "nodes" : [
                0
            ]
        }
    ],
    "nodes" : [
        {
            "mesh" : 0,
            "name" : "Low Poly Earth V2",
            "rotation" : [
                0,
                -1,
                0,
                4.371138828673793e-08
            ]
        }
    ],
    "materials" : [
        {
            "doubleSided" : true,
            "name" : "Oceans",
            "pbrMetallicRoughness" : {
                "baseColorFactor" : [
                    0.16862745583057404,
                    0.5568627715110779,
                    0.7843137383460999,
                    1
                ],
                "metallicFactor" : 0,
                "roughnessFactor" : 0.8864707350730896
            }
        },
        {
            "doubleSided" : true,
            "name" : "Land Masses",
            "pbrMetallicRoughness" : {
                "baseColorFactor" : [
                    0.33725491166114807,
                    0.6705882549285889,
                    0.24313725531101227,
                    1
                ],
                "metallicFactor" : 0
            }
        }
    ],
    "meshes" : [
        {
            "name" : "Low Poly Earth V2",
            "primitives" : [
                {
                    "attributes" : {
                        "POSITION" : 0,
                        "NORMAL" : 1,
                        "TEXCOORD_0" : 2
                    },
                    "indices" : 3,
                    "material" : 0
                },
                {
                    "attributes" : {
                        "POSITION" : 4,
                        "NORMAL" : 5,
                        "TEXCOORD_0" : 6
                    },
                    "indices" : 7,
                    "material" : 1
                }
            ]
        }
    ],
    "accessors" : [
        {
            "bufferView" : 0,
            "componentType" : 5126,
            "count" : 720,
            "max" : [
                101.64578247070312,
                102.68953704833984,
                103.76998138427734
            ],
            "min" : [
                -102.94007110595703,
                -103.47417449951172,
                -103.0677490234375
            ],
            "type" : "VEC3"
        },
        {
            "bufferView" : 1,
            "componentType" : 5126,
            "count" : 720,
            "type" : "VEC3"
        },
        {
            "bufferView" : 2,
            "componentType" : 5126,
            "count" : 720,
            "type" : "VEC2"
        },
        {
            "bufferView" : 3,
            "componentType" : 5123,
            "count" : 720,
            "type" : "SCALAR"
        },
        {
            "bufferView" : 4,
            "componentType" : 5126,
            "count" : 14613,
            "max" : [
                87.86383819580078,
                102.37537384033203,
                104.12676239013672
            ],
            "min" : [
                -104.5387191772461,
                -83.255126953125,
                -103.00968933105469
            ],
            "type" : "VEC3"
        },
        {
            "bufferView" : 5,
            "componentType" : 5126,
            "count" : 14613,
            "type" : "VEC3"
        },
        {
            "bufferView" : 6,
            "componentType" : 5126,
            "count" : 14613,
            "type" : "VEC2"
        },
        {
            "bufferView" : 7,
            "componentType" : 5123,
            "count" : 14613,
            "type" : "SCALAR"
        }
    ],
    "bufferViews" : [
        {
            "buffer" : 0,
            "byteLength" : 8640,
            "byteOffset" : 0
        },
        {
            "buffer" : 0,
            "byteLength" : 8640,
            "byteOffset" : 8640
        },
        {
            "buffer" : 0,
            "byteLength" : 5760,
            "byteOffset" : 17280
        },
        {
            "buffer" : 0,
            "byteLength" : 1440,
            "byteOffset" : 23040
        },
        {
            "buffer" : 0,
            "byteLength" : 175356,
            "byteOffset" : 24480
        },
        {
            "buffer" : 0,
            "byteLength" : 175356,
            "byteOffset" : 199836
        },
        {
            "buffer" : 0,
            "byteLength" : 116904,
            "byteOffset" : 375192
        },
        {
            "buffer" : 0,
            "byteLength" : 29226,
            "byteOffset" : 492096
        }
    ],
    "buffers" : [
        {
            "byteLength" : 521324,
            "uri" : "data:application/octet-stream;base64,"
        }
    ]
}
